<?xml version="1.0" encoding="UTF-8"?>
<svg version="1.1" xmlns="http://www.w3.org/2000/svg" width="512" height="512">
<path d="M0 0 C1.16789062 -0.03738281 2.33578125 -0.07476562 3.5390625 -0.11328125 C14.85013003 1.14222421 21.46510731 8.72349364 29.0390625 16.453125 C30.2415145 17.66238073 31.44501494 18.87059472 32.64950562 20.07781982 C35.80467624 23.24634077 38.94414628 26.42999307 42.08087158 29.61676025 C44.63065283 32.20189769 47.19152264 34.77588897 49.75306129 37.34936905 C52.83143204 40.4426186 55.9046548 43.54095837 58.9765625 46.640625 C59.55328327 47.22225655 60.13000404 47.80388809 60.7242012 48.40314484 C70.95796494 58.73912723 70.95796494 58.73912723 74.73388672 63.18457031 C79.79478601 69.08970202 85.42664662 74.47303652 90.93888855 79.95155334 C93.06931126 82.06908088 95.19647922 84.1898315 97.32287598 86.31140137 C101.83743603 90.81459648 106.35591876 95.31384263 110.875 99.8125 C116.11638632 105.03019801 121.35610377 110.24954956 126.59159851 115.47315979 C128.67607178 117.55120342 130.76355921 119.62618535 132.85119629 121.7010498 C138.42476418 127.25343485 143.95872937 132.77282634 149.05252075 138.77630615 C150.86358397 140.88003986 152.83124828 142.78249635 154.85546875 144.6796875 C155.62697266 145.42089844 156.39847656 146.16210938 157.19335938 146.92578125 C158.77504671 148.43575152 160.36628249 149.93578167 161.96679688 151.42578125 C168.06182184 157.33145615 171.52032502 162.96909894 172.87109375 171.4140625 C172.65020133 180.92716271 170.19370973 188.4201541 163.375 195.3125 C156.35878817 200.31170561 150.15482363 201.46431013 141.64331818 201.44672108 C140.48059375 201.45024942 140.48059375 201.45024942 139.29437995 201.45384905 C136.68749087 201.46052529 134.08065179 201.46008124 131.47375488 201.45967102 C129.58954527 201.4629705 127.70533637 201.46669625 125.82112837 201.4708125 C120.63560123 201.48083106 115.45008566 201.48454907 110.26455021 201.48720181 C104.67469351 201.49110529 99.08484597 201.50068361 93.49499512 201.50941467 C79.99152356 201.52917793 66.48805124 201.53924516 52.98456883 201.54814246 C46.62553054 201.55252563 40.26649308 201.55789237 33.90745544 201.56313133 C12.76848768 201.58014354 -8.37047945 201.59466254 -29.50945282 201.60188007 C-30.87634175 201.60235483 -32.24323068 201.60283072 -33.61011961 201.60330774 C-34.28796339 201.60354411 -34.96580717 201.60378049 -35.66419167 201.60402403 C-39.09839341 201.60522521 -42.53259514 201.60644066 -45.96679688 201.60766602 C-46.64832053 201.60790617 -47.32984418 201.60814632 -48.03202007 201.60839374 C-70.12159214 201.61628418 -92.21111047 201.63971085 -114.30065908 201.67222196 C-137.66314568 201.70654368 -161.02559173 201.72623227 -184.38810778 201.72952431 C-197.11997365 201.73168927 -209.85176054 201.7404359 -222.58360291 201.76598549 C-233.42669906 201.78769458 -244.26969704 201.79574183 -255.11281246 201.78601871 C-260.64351221 201.78147466 -266.17400943 201.78336662 -271.7046814 201.80278015 C-276.7729692 201.82041671 -281.84090679 201.81940988 -286.90919834 201.80388286 C-288.73767074 201.80150756 -290.56616741 201.80582623 -292.39460272 201.81771151 C-305.61847301 201.89830968 -318.17349087 201.29705833 -328.69140625 192.2265625 C-336.83283745 184.16736797 -339.92360437 176.05693097 -340.06748962 164.62110901 C-340.06455399 163.5614946 -340.06161835 162.50188019 -340.05859375 161.41015625 C-340.0638356 160.29241318 -340.06907745 159.1746701 -340.07447815 158.02305603 C-340.08087147 155.67073391 -340.07959645 153.31837971 -340.07104492 150.96606445 C-340.06253308 147.3889007 -340.09133975 143.81333466 -340.12304688 140.23632812 C-340.12465922 137.94010464 -340.12408073 135.64387836 -340.12109375 133.34765625 C-340.13232773 132.29006607 -340.14356171 131.23247589 -340.15513611 130.14283752 C-340.05298999 119.13139867 -336.64053913 111.44225932 -329.05859375 103.51171875 C-320.2038591 95.50976753 -310.78851808 94.00943546 -299.26290894 94.06767273 C-298.12522823 94.06540816 -296.98754753 94.06314358 -295.81539166 94.06081039 C-292.00691635 94.05551737 -288.19860393 94.06434324 -284.39013672 94.07299805 C-281.65833277 94.07302056 -278.92653469 94.06995329 -276.19473267 94.06689453 C-270.31422696 94.06167928 -264.43375424 94.06315885 -258.55324936 94.06867027 C-249.25952212 94.07689289 -239.96586577 94.06564677 -230.67214966 94.0514679 C-227.49080484 94.04686728 -224.30945982 94.04241687 -221.1281147 94.03802967 C-219.93570893 94.03638246 -219.93570893 94.03638246 -218.71921416 94.03470197 C-209.67853487 94.02253735 -200.6378533 94.01497811 -191.59716797 94.0090332 C-190.77104713 94.00848514 -189.94492628 94.00793708 -189.09377147 94.00737242 C-175.69247834 93.99890468 -162.29120526 94.00225607 -148.88991199 94.00818755 C-135.12720115 94.01380161 -121.36459156 94.0002902 -107.60191166 93.97063476 C-99.11403497 93.95308257 -90.62645073 93.95147311 -82.13857533 93.97027991 C-76.32587991 93.98187047 -70.51338222 93.97546316 -64.70071255 93.9548107 C-61.34590814 93.94347235 -57.99203407 93.94307423 -54.63718414 93.95898628 C-51.00201999 93.97500611 -47.36822525 93.96052833 -43.73312378 93.9382782 C-42.6707792 93.9503157 -41.60843462 93.96235319 -40.51389778 93.97475547 C-35.73335413 93.91485162 -33.39333492 93.88317312 -29.46859169 90.96810913 C-27.15208225 87.6312837 -27.01574215 85.70515957 -27.04492188 81.66137695 C-27.04124352 80.68951195 -27.04124352 80.68951195 -27.03749084 79.69801331 C-27.03532585 78.29737591 -27.04454522 76.89668381 -27.0639801 75.49617958 C-27.09416302 73.27032253 -27.09299013 71.04638017 -27.0838623 68.82035828 C-27.06761377 63.2899688 -27.10478648 57.76017338 -27.14044189 52.22991943 C-27.16853911 47.55800973 -27.17595297 42.88691854 -27.15687561 38.21495628 C-27.15626386 36.03760337 -27.18529798 33.86199728 -27.21569824 31.68489075 C-27.24889814 21.9140418 -25.52145396 15.02926005 -19.25 7.4375 C-13.24417954 2.57564535 -7.78634018 0.16115519 0 0 Z " fill="#99D856" transform="translate(339.625,15.6875)"/>
<path d="M0 0 C0.77514961 -0.00235223 1.55029923 -0.00470446 2.34893823 -0.00712797 C4.95582731 -0.01380422 7.56266639 -0.01336016 10.16956329 -0.01294994 C12.0537729 -0.01624943 13.93798181 -0.01997517 15.82218981 -0.02409142 C21.00771695 -0.03410998 26.19323252 -0.03782799 31.37876797 -0.04048073 C36.96862467 -0.04438421 42.55847221 -0.05396253 48.14832306 -0.0626936 C61.65179462 -0.08245685 75.15526693 -0.09252408 88.65874934 -0.10142139 C95.01778764 -0.10580455 101.3768251 -0.11117129 107.73586273 -0.11641026 C128.8748305 -0.13342246 150.01379762 -0.14794146 171.152771 -0.155159 C172.51965993 -0.15563375 173.88654886 -0.15610964 175.25343779 -0.15658666 C175.93128157 -0.15682303 176.60912535 -0.15705941 177.30750985 -0.15730295 C180.74171159 -0.15850413 184.17591332 -0.15971958 187.61011505 -0.16094494 C188.63240053 -0.16130516 188.63240053 -0.16130516 189.67533825 -0.16167267 C211.76491032 -0.1695631 233.85442865 -0.19298977 255.94397726 -0.22550088 C279.30646386 -0.2598226 302.6689099 -0.2795112 326.03142595 -0.28280324 C338.76329182 -0.28496819 351.49507872 -0.29371482 364.22692108 -0.31926441 C375.07001723 -0.3409735 385.91301522 -0.34902075 396.75613064 -0.33929763 C402.28683039 -0.33475358 407.81732761 -0.33664554 413.34799957 -0.35605907 C418.41628738 -0.37369563 423.48422497 -0.37268881 428.55251652 -0.35716178 C430.38098891 -0.35478648 432.20948559 -0.35910516 434.03792089 -0.37099043 C446.57641864 -0.44741133 459.37991961 -0.11394326 469.49097443 8.37250233 C477.71568946 16.52491217 481.56784896 24.27609132 481.7108078 35.86478138 C481.70640434 37.49475559 481.70640434 37.49475559 481.70191193 39.15765858 C481.70715378 40.29901264 481.71239563 41.44036671 481.71779633 42.61630726 C481.72419672 45.02168435 481.72290535 47.42709283 481.7143631 49.83246326 C481.70586072 53.4909145 481.73463292 57.14779904 481.76636505 60.80609608 C481.76797759 63.15244978 481.76739853 65.49880622 481.76441193 67.84515858 C481.7756459 68.92775959 481.78687988 70.0103606 481.79845428 71.12576771 C481.69619955 82.4023298 478.27080076 89.92188552 470.49097443 98.00531483 C461.8759128 106.25699951 452.05795616 107.58840481 440.53873444 107.51276112 C438.82731012 107.51955631 438.82731012 107.51955631 437.08131158 107.52648878 C433.27975961 107.5380639 429.47856279 107.52848543 425.67700958 107.5189867 C422.94313509 107.52141613 420.20927694 107.52840161 417.47541046 107.53526783 C411.59985653 107.54779894 405.72437619 107.54981956 399.8488121 107.54491138 C391.34951549 107.53808934 382.8503294 107.55064443 374.35105257 107.56841856 C360.55378527 107.59702747 346.75652994 107.6145714 332.95923615 107.62299061 C331.72220617 107.62375138 331.72220617 107.62375138 330.46018569 107.62452751 C323.76585132 107.6285611 317.07151669 107.63205625 310.37718201 107.63552475 C304.51651239 107.63858324 298.65584295 107.64185519 292.79517365 107.64545155 C291.96967772 107.64595416 291.1441818 107.64645678 290.29367085 107.64697462 C276.53880102 107.65571261 262.78397244 107.67613245 249.02913034 107.70493364 C240.54802527 107.7221233 232.06703678 107.72869419 223.58591656 107.72162759 C217.78124401 107.71745484 211.97664514 107.72377667 206.17198975 107.73842633 C202.82152978 107.74649911 199.4714047 107.74793421 196.12092209 107.739604 C192.4924388 107.73127285 188.86445302 107.74115513 185.23600006 107.75568104 C183.64118347 107.74534014 183.64118347 107.74534014 182.01414835 107.73479033 C181.04396718 107.74239677 180.073786 107.75000321 179.0742054 107.75784016 C178.23664699 107.75811254 177.39908859 107.75838492 176.53614962 107.75866556 C173.70450371 108.22758941 172.34285274 109.1752441 170.26831818 111.13422108 C169.15733936 114.46715752 169.13703844 116.97064327 169.12647247 120.48236561 C169.11943802 121.79448017 169.11240356 123.10659473 169.10515594 124.45847034 C169.10334005 125.16004387 169.10152416 125.86161739 169.09965324 126.58445072 C169.09246732 128.78838228 169.07678259 130.99209381 169.05831146 133.19595814 C169.00595984 139.46213121 168.95793457 145.72818585 168.94239044 151.99457264 C168.93225313 155.8302876 168.90278088 159.66545094 168.86107063 163.500947 C168.84883266 164.9559952 168.8436261 166.41112159 168.84586906 167.86621952 C168.8570744 177.51314915 168.36231932 185.4103736 161.83081818 192.94672108 C160.98519318 193.66859608 160.13956818 194.39047108 159.26831818 195.13422108 C158.46394318 195.85609608 157.65956818 196.57797108 156.83081818 197.32172108 C152.05717825 200.6981981 147.28548036 201.46081411 141.51831818 201.57172108 C140.38909943 201.61168201 139.25988068 201.65164295 138.09644318 201.69281483 C127.32365492 200.12086715 120.33354876 192.89717123 113.03784943 185.42718983 C111.99377185 184.37630238 110.94864038 183.32646107 109.90251923 182.27760792 C107.16982983 179.53160591 104.45287561 176.77053135 101.73871613 174.00623035 C99.53357503 171.76569399 97.31731504 169.53634286 95.10038471 167.30747986 C92.4298409 164.6220422 89.76442711 161.93154065 87.10034943 159.23968983 C86.6026536 158.73708323 86.10495777 158.23447662 85.59218025 157.71663952 C76.78017088 148.80258974 76.78017088 148.80258974 73.00733185 144.36005116 C67.9050285 138.42860062 62.25013465 133.00694291 56.70442963 127.49516773 C54.57400692 125.3776402 52.44683896 123.25688958 50.3204422 121.13531971 C45.80588214 116.6321246 41.28739942 112.13287845 36.76831818 107.63422108 C31.52693186 102.41652307 26.28721441 97.19717152 21.05171967 91.97356129 C18.96724639 89.89551765 16.87975897 87.82053573 14.79212189 85.74567127 C9.24212604 80.21684402 3.73055181 74.72174156 -1.3420639 68.74423695 C-3.53167625 66.20734492 -5.90386063 63.9050218 -8.30590057 61.56781483 C-9.31334492 60.57786826 -10.320498 59.5876252 -11.32738495 58.5971117 C-12.87761995 57.07785681 -14.43010213 55.5611237 -15.98778534 54.04950428 C-30.71959498 39.72851433 -30.71959498 39.72851433 -31.04418182 28.00922108 C-30.96483735 20.5805946 -28.59807403 14.96047213 -24.54418182 8.82172108 C-17.21373189 1.81706892 -9.9228043 -0.02050551 0 0 Z " fill="#6994FF" transform="translate(30.73168182373047,294.86577892303467)"/>
<path d="M0 0 C1.16789062 -0.03738281 2.33578125 -0.07476562 3.5390625 -0.11328125 C14.85013003 1.14222421 21.46510731 8.72349364 29.0390625 16.453125 C30.2415145 17.66238073 31.44501494 18.87059472 32.64950562 20.07781982 C35.80467624 23.24634077 38.94414628 26.42999307 42.08087158 29.61676025 C44.63065283 32.20189769 47.19152264 34.77588897 49.75306129 37.34936905 C52.83143204 40.4426186 55.9046548 43.54095837 58.9765625 46.640625 C59.55328327 47.22225655 60.13000404 47.80388809 60.7242012 48.40314484 C70.95796494 58.73912723 70.95796494 58.73912723 74.73388672 63.18457031 C79.79478601 69.08970202 85.42664662 74.47303652 90.93888855 79.95155334 C93.06931126 82.06908088 95.19647922 84.1898315 97.32287598 86.31140137 C101.83743603 90.81459648 106.35591876 95.31384263 110.875 99.8125 C116.11638632 105.03019801 121.35610377 110.24954956 126.59159851 115.47315979 C128.67607178 117.55120342 130.76355921 119.62618535 132.85119629 121.7010498 C149.22290271 138.00830543 149.22290271 138.00830543 151.375 142.3125 C116.03288214 140.72084049 80.6993797 138.99491273 45.37109375 137.12109375 C44.46888737 137.07328026 43.56668099 137.02546678 42.63713503 136.9762044 C26.80483473 136.13711364 10.97281256 135.29281607 -4.85913086 134.44702148 C-17.86557349 133.75222627 -30.87211517 133.05933801 -43.87890625 132.37109375 C-45.21328114 132.30046801 -45.21328114 132.30046801 -46.57461309 132.22841549 C-73.85953135 130.78548846 -101.14518105 129.43888486 -128.44882774 128.39596367 C-130.6786146 128.3104437 -132.90831973 128.22300145 -135.13801575 128.13514709 C-233.6238784 120.67307418 -233.6238784 120.67307418 -322.2734375 154.11328125 C-328.81295503 160.22914233 -333.62207747 167.34514458 -337.625 175.3125 C-340.14034438 172.79715562 -339.88568691 171.95111504 -339.91552734 168.47070312 C-339.9346669 166.95772644 -339.9346669 166.95772644 -339.95419312 165.41418457 C-339.95641876 164.31844116 -339.95864441 163.22269775 -339.9609375 162.09375 C-339.9709227 160.40227844 -339.9709227 160.40227844 -339.98110962 158.67663574 C-339.99125502 156.28248732 -339.99592606 153.88831052 -339.99560547 151.49414062 C-339.99994929 147.85498254 -340.03616899 144.21706594 -340.07421875 140.578125 C-340.08009258 138.25000413 -340.08405818 135.92187752 -340.0859375 133.59375 C-340.10030853 132.51420044 -340.11467957 131.43465088 -340.12948608 130.3223877 C-340.06336579 119.21288052 -336.71254886 111.51757984 -329.05859375 103.51171875 C-320.2038591 95.50976753 -310.78851808 94.00943546 -299.26290894 94.06767273 C-298.12522823 94.06540816 -296.98754753 94.06314358 -295.81539166 94.06081039 C-292.00691635 94.05551737 -288.19860393 94.06434324 -284.39013672 94.07299805 C-281.65833277 94.07302056 -278.92653469 94.06995329 -276.19473267 94.06689453 C-270.31422696 94.06167928 -264.43375424 94.06315885 -258.55324936 94.06867027 C-249.25952212 94.07689289 -239.96586577 94.06564677 -230.67214966 94.0514679 C-227.49080484 94.04686728 -224.30945982 94.04241687 -221.1281147 94.03802967 C-219.93570893 94.03638246 -219.93570893 94.03638246 -218.71921416 94.03470197 C-209.67853487 94.02253735 -200.6378533 94.01497811 -191.59716797 94.0090332 C-190.77104713 94.00848514 -189.94492628 94.00793708 -189.09377147 94.00737242 C-175.69247834 93.99890468 -162.29120526 94.00225607 -148.88991199 94.00818755 C-135.12720115 94.01380161 -121.36459156 94.0002902 -107.60191166 93.97063476 C-99.11403497 93.95308257 -90.62645073 93.95147311 -82.13857533 93.97027991 C-76.32587991 93.98187047 -70.51338222 93.97546316 -64.70071255 93.9548107 C-61.34590814 93.94347235 -57.99203407 93.94307423 -54.63718414 93.95898628 C-51.00201999 93.97500611 -47.36822525 93.96052833 -43.73312378 93.9382782 C-42.6707792 93.9503157 -41.60843462 93.96235319 -40.51389778 93.97475547 C-35.73335413 93.91485162 -33.39333492 93.88317312 -29.46859169 90.96810913 C-27.15208225 87.6312837 -27.01574215 85.70515957 -27.04492188 81.66137695 C-27.04124352 80.68951195 -27.04124352 80.68951195 -27.03749084 79.69801331 C-27.03532585 78.29737591 -27.04454522 76.89668381 -27.0639801 75.49617958 C-27.09416302 73.27032253 -27.09299013 71.04638017 -27.0838623 68.82035828 C-27.06761377 63.2899688 -27.10478648 57.76017338 -27.14044189 52.22991943 C-27.16853911 47.55800973 -27.17595297 42.88691854 -27.15687561 38.21495628 C-27.15626386 36.03760337 -27.18529798 33.86199728 -27.21569824 31.68489075 C-27.24889814 21.9140418 -25.52145396 15.02926005 -19.25 7.4375 C-13.24417954 2.57564535 -7.78634018 0.16115519 0 0 Z " fill="#A9EA6A" transform="translate(339.625,15.6875)"/>
<path d="M0 0 C0.77514961 -0.00235223 1.55029923 -0.00470446 2.34893823 -0.00712797 C4.95582731 -0.01380422 7.56266639 -0.01336016 10.16956329 -0.01294994 C12.0537729 -0.01624943 13.93798181 -0.01997517 15.82218981 -0.02409142 C21.00771695 -0.03410998 26.19323252 -0.03782799 31.37876797 -0.04048073 C36.96862467 -0.04438421 42.55847221 -0.05396253 48.14832306 -0.0626936 C61.65179462 -0.08245685 75.15526693 -0.09252408 88.65874934 -0.10142139 C95.01778764 -0.10580455 101.3768251 -0.11117129 107.73586273 -0.11641026 C128.8748305 -0.13342246 150.01379762 -0.14794146 171.152771 -0.155159 C172.51965993 -0.15563375 173.88654886 -0.15610964 175.25343779 -0.15658666 C175.93128157 -0.15682303 176.60912535 -0.15705941 177.30750985 -0.15730295 C180.74171159 -0.15850413 184.17591332 -0.15971958 187.61011505 -0.16094494 C188.63240053 -0.16130516 188.63240053 -0.16130516 189.67533825 -0.16167267 C211.76491032 -0.1695631 233.85442865 -0.19298977 255.94397726 -0.22550088 C279.30646386 -0.2598226 302.6689099 -0.2795112 326.03142595 -0.28280324 C338.76329182 -0.28496819 351.49507872 -0.29371482 364.22692108 -0.31926441 C375.07001723 -0.3409735 385.91301522 -0.34902075 396.75613064 -0.33929763 C402.28683039 -0.33475358 407.81732761 -0.33664554 413.34799957 -0.35605907 C418.41628738 -0.37369563 423.48422497 -0.37268881 428.55251652 -0.35716178 C430.38098891 -0.35478648 432.20948559 -0.35910516 434.03792089 -0.37099043 C446.57641864 -0.44741133 459.37991961 -0.11394326 469.49097443 8.37250233 C476.56633957 15.38566646 481.3575574 22.55524881 481.56128693 32.72797108 C481.54159727 34.6969365 481.50619111 36.66580164 481.45581818 38.63422108 C481.44228302 39.6474242 481.42874786 40.66062733 481.41480255 41.70453358 C481.3797488 44.18166512 481.33061581 46.65765035 481.26831818 49.13422108 C434.68930576 53.94442952 388.06390844 54.63814651 341.26831818 54.13422108 C340.36426239 54.12455311 339.4602066 54.11488514 338.52875519 54.1049242 C306.70851174 53.73537793 274.96738137 51.38303859 243.29627228 48.39035511 C186.11191974 42.9964658 127.37819116 38.24952297 70.48169708 48.72943592 C68.11560421 49.16214957 65.74528453 49.56428001 63.37378693 49.96625233 C44.09985976 53.33054904 25.15582341 58.41211549 6.76441193 65.08856678 C5.96390411 65.3717577 5.1633963 65.65494862 4.33863068 65.94672108 C3.64527618 66.20066639 2.95192169 66.4546117 2.23755646 66.71625233 C-0.24620749 67.24342861 -1.37922199 67.12188655 -3.73168182 66.13422108 C-6.14183807 64.11224842 -6.14183807 64.11224842 -8.79418182 61.47015858 C-9.26734833 60.99986225 -9.74051483 60.52956593 -10.22801971 60.0450182 C-11.2267481 59.04832828 -12.22170994 58.04785175 -13.21312714 57.04388905 C-14.71620995 55.52485713 -16.23446239 54.02235419 -17.75511932 52.52093983 C-25.23146643 45.06222853 -30.74231801 38.90809345 -31.04418182 28.00922108 C-30.96483735 20.5805946 -28.59807403 14.96047213 -24.54418182 8.82172108 C-17.21373189 1.81706892 -9.9228043 -0.02050551 0 0 Z " fill="#7FA9FF" transform="translate(30.73168182373047,294.86577892303467)"/>
</svg>
